# xmcd
#
# Track frame offsets: 
#        150
#        101947
#        146214
#        184708
#        257676
#        294824
#
# Disc length: 4443 seconds
#
# Revision: 9
# Processed by: cddbd v1.5.2PL0 Copyright (c) Steve Scherf et al.
# Submitted via: ExactAudioCopy v1.0b4
#
DISCID=57115906
DTITLE=David Oistrakh - David Oistrakh - The Complete EMI Recordings [
DTITLE=Disc  6]
DYEAR=2008
DGENRE=Concerto
TTITLE0=Brahms: Violin Concerto in D major, op.77 (rec.1960) - 1. Alle
TTITLE0=gro non troppo
TTITLE1=Brahms: Violin Concerto in D major, op.77 (rec.1960) - 2. Adag
TTITLE1=io
TTITLE2=Brahms: Violin Concerto in D major, op.77 (rec.1960) - 3. Alle
TTITLE2=gro giocoso, ma non troppo vivace
TTITLE3=Brahms: Double Concerto in A minor, op.102 (rec.1956) - 1. All
TTITLE3=egro
TTITLE4=Brahms: Double Concerto in A minor, op.102 (rec.1956) - 2. And
TTITLE4=ante
TTITLE5=Brahms: Double Concerto in A minor, op.102 (rec.1956) - 3. Viv
TTITLE5=ace non troppo
EXTD=
EXTT0=
EXTT1=
EXTT2=
EXTT3=
EXTT4=
EXTT5=
PLAYORDER=
